<svg width="29" height="29" viewBox="0 0 29 29" fill="none" xmlns="http://www.w3.org/2000/svg">
<path d="M9.13531 25.52C11.1337 25.52 14.2741 22.62 14.2741 22.62C14.2741 22.62 17.1289 25.52 19.4128 25.52C21.6967 25.52 22.8386 23.49 22.8386 21.46C22.8386 19.43 17.6999 6.67001 14.2741 6.96001C10.8482 7.25001 5.70947 19.43 5.70947 21.46C5.70947 23.49 7.13689 25.52 9.13531 25.52Z" stroke="#FF385C"/>
<path d="M11.4195 18.56C11.705 19.43 13.4179 22.62 14.2744 22.62C15.1308 22.62 16.5582 20.01 17.1292 18.56C17.7002 17.11 17.4147 16.24 17.1292 15.66C16.8437 15.08 15.9873 13.92 14.2744 13.92C12.5614 13.92 11.9905 14.79 11.4195 15.66C10.8485 16.53 11.134 17.69 11.4195 18.56Z" stroke="#FF385C"/>
<path d="M14.2743 22.62V18.56M14.2743 18.56C13.9888 18.56 13.1323 17.69 13.1323 17.4C13.1323 17.11 13.6436 16.24 14.2743 16.24C14.9049 16.24 15.4162 17.11 15.4162 17.4C15.4162 17.69 14.5598 18.56 14.2743 18.56Z" stroke="#FF385C"/>
<path d="M10.8486 6.38C10.8486 7.66129 9.82601 8.69999 8.56467 8.69999C7.3033 8.69999 6.28076 7.66129 6.28076 6.38C6.28076 5.0987 7.3033 4.06 8.56467 4.06C9.82601 4.06 10.8486 5.0987 10.8486 6.38ZM6.78572 6.38C6.78572 7.37801 7.58217 8.18706 8.56467 8.18706C9.54716 8.18706 10.3436 7.37801 10.3436 6.38C10.3436 5.38199 9.54716 4.57294 8.56467 4.57294C7.58217 4.57294 6.78572 5.38199 6.78572 6.38Z" fill="#FF385C"/>
<path d="M22.8388 6.38C22.8388 7.66129 21.8162 8.69999 20.5549 8.69999C19.2935 8.69999 18.271 7.66129 18.271 6.38C18.271 5.0987 19.2935 4.06 20.5549 4.06C21.8162 4.06 22.8388 5.0987 22.8388 6.38ZM18.776 6.38C18.776 7.37801 19.5724 8.18706 20.5549 8.18706C21.5374 8.18706 22.3338 7.37801 22.3338 6.38C22.3338 5.38199 21.5374 4.57294 20.5549 4.57294C19.5724 4.57294 18.776 5.38199 18.776 6.38Z" fill="#FF385C"/>
<path d="M8.56462 6.95999C8.87996 6.95999 9.1356 6.70031 9.1356 6.37999C9.1356 6.05966 8.87996 5.79999 8.56462 5.79999C8.24928 5.79999 7.99365 6.05966 7.99365 6.37999C7.99365 6.70031 8.24928 6.95999 8.56462 6.95999Z" fill="#FF385C"/>
<path d="M20.5549 6.95999C20.8702 6.95999 21.1258 6.70031 21.1258 6.37999C21.1258 6.05966 20.8702 5.79999 20.5549 5.79999C20.2395 5.79999 19.9839 6.05966 19.9839 6.37999C19.9839 6.70031 20.2395 6.95999 20.5549 6.95999Z" fill="#FF385C"/>
<path d="M28.5486 14.5C28.5486 22.5081 22.1577 29 14.2743 29C6.39082 29 0 22.5081 0 14.5C0 6.49187 6.39082 0 14.2743 0C22.1577 0 28.5486 6.49187 28.5486 14.5ZM1.02677 14.5C1.02677 21.9321 6.95789 27.957 14.2743 27.957C21.5907 27.957 27.5218 21.9321 27.5218 14.5C27.5218 7.06791 21.5907 1.043 14.2743 1.043C6.95789 1.043 1.02677 7.06791 1.02677 14.5Z" fill="#FF385C"/>
</svg>
