<svg width="124" height="34" viewBox="0 0 124 34" fill="none" xmlns="http://www.w3.org/2000/svg">
<path d="M10.88 29.92C13.26 29.92 17 26.52 17 26.52C17 26.52 20.4 29.92 23.12 29.92C25.84 29.92 27.2 27.54 27.2 25.16C27.2 22.78 21.08 7.82 17 8.16C12.92 8.5 6.79999 22.78 6.79999 25.16C6.79999 27.54 8.49998 29.92 10.88 29.92Z" stroke="#FF385C"/>
<path d="M13.6 21.76C13.94 22.78 15.98 26.52 17 26.52C18.02 26.52 19.72 23.46 20.4 21.76C21.08 20.06 20.74 19.04 20.4 18.36C20.06 17.68 19.04 16.32 17 16.32C14.96 16.32 14.28 17.34 13.6 18.36L13.6 18.36C12.92 19.38 13.26 20.74 13.6 21.76Z" stroke="#FF385C"/>
<path d="M17 26.52V21.76M17 21.76C16.66 21.76 15.64 20.74 15.64 20.4C15.64 20.06 16.2489 19.04 17 19.04C17.7511 19.04 18.36 20.06 18.36 20.4C18.36 20.74 17.34 21.76 17 21.76Z" stroke="#FF385C"/>
<path d="M12.92 7.48001C12.92 8.98222 11.7022 10.2 10.2 10.2C8.69777 10.2 7.47998 8.98222 7.47998 7.48001C7.47998 5.9778 8.69777 4.76001 10.2 4.76001C11.7022 4.76001 12.92 5.9778 12.92 7.48001ZM8.08136 7.48001C8.08136 8.65009 9.0299 9.59863 10.2 9.59863C11.3701 9.59863 12.3186 8.65009 12.3186 7.48001C12.3186 6.30993 11.3701 5.36139 10.2 5.36139C9.0299 5.36139 8.08136 6.30993 8.08136 7.48001Z" fill="#FF385C"/>
<path d="M27.2 7.48001C27.2 8.98222 25.9822 10.2 24.48 10.2C22.9778 10.2 21.76 8.98222 21.76 7.48001C21.76 5.9778 22.9778 4.76001 24.48 4.76001C25.9822 4.76001 27.2 5.9778 27.2 7.48001ZM22.3614 7.48001C22.3614 8.65009 23.3099 9.59863 24.48 9.59863C25.6501 9.59863 26.5986 8.65009 26.5986 7.48001C26.5986 6.30993 25.6501 5.36139 24.48 5.36139C23.3099 5.36139 22.3614 6.30993 22.3614 7.48001Z" fill="#FF385C"/>
<circle cx="10.2" cy="7.47999" r="0.68" fill="#FF385C"/>
<circle cx="24.48" cy="7.47999" r="0.68" fill="#FF385C"/>
<path d="M34 17C34 26.3888 26.3888 34 17 34C7.61116 34 0 26.3888 0 17C0 7.61116 7.61116 0 17 0C26.3888 0 34 7.61116 34 17ZM1.22283 17C1.22283 25.7135 8.28651 32.7772 17 32.7772C25.7135 32.7772 32.7772 25.7135 32.7772 17C32.7772 8.28651 25.7135 1.22283 17 1.22283C8.28651 1.22283 1.22283 8.28651 1.22283 17Z" fill="#FF385C"/>
<path d="M41.8379 10.9629V15.0352C42.3392 14.5143 42.8503 14.1172 43.3711 13.8438C43.8919 13.5638 44.5365 13.4238 45.3047 13.4238C46.1901 13.4238 46.9648 13.6354 47.6289 14.0586C48.2995 14.4753 48.8171 15.084 49.1816 15.8848C49.5527 16.679 49.7383 17.623 49.7383 18.7168C49.7383 19.5241 49.6341 20.2663 49.4258 20.9434C49.224 21.6139 48.9277 22.1966 48.5371 22.6914C48.1465 23.1862 47.6712 23.5703 47.1113 23.8438C46.5579 24.1107 45.946 24.2441 45.2754 24.2441C44.8652 24.2441 44.4779 24.1953 44.1133 24.0977C43.7552 24 43.4492 23.873 43.1953 23.7168C42.9414 23.554 42.7233 23.388 42.541 23.2188C42.3652 23.0495 42.1309 22.7956 41.8379 22.457V22.7207C41.8379 23.222 41.7174 23.6029 41.4766 23.8633C41.2357 24.1172 40.9297 24.2441 40.5586 24.2441C40.181 24.2441 39.8783 24.1172 39.6504 23.8633C39.429 23.6029 39.3184 23.222 39.3184 22.7207V11.0801C39.3184 10.5397 39.4258 10.1328 39.6406 9.85938C39.862 9.57943 40.168 9.43945 40.5586 9.43945C40.9688 9.43945 41.2845 9.57292 41.5059 9.83984C41.7272 10.1003 41.8379 10.4746 41.8379 10.9629ZM41.9648 18.8828C41.9648 19.944 42.2057 20.7611 42.6875 21.334C43.1758 21.9004 43.8138 22.1836 44.6016 22.1836C45.2721 22.1836 45.8483 21.8939 46.3301 21.3145C46.8184 20.7285 47.0625 19.8919 47.0625 18.8047C47.0625 18.1016 46.9616 17.4961 46.7598 16.9883C46.5579 16.4805 46.2715 16.0898 45.9004 15.8164C45.5293 15.5365 45.0964 15.3965 44.6016 15.3965C44.0938 15.3965 43.6413 15.5365 43.2441 15.8164C42.847 16.0898 42.5345 16.4902 42.3066 17.0176C42.0788 17.5384 41.9648 18.1602 41.9648 18.8828ZM59.3184 19.4785H54.1035C54.11 20.084 54.2305 20.6178 54.4648 21.0801C54.7057 21.5423 55.0215 21.8906 55.4121 22.125C55.8092 22.3594 56.2454 22.4766 56.7207 22.4766C57.0397 22.4766 57.3294 22.4408 57.5898 22.3691C57.8568 22.291 58.1139 22.1738 58.3613 22.0176C58.6087 21.8548 58.8366 21.6823 59.0449 21.5C59.2533 21.3177 59.5234 21.0703 59.8555 20.7578C59.9922 20.6406 60.1875 20.582 60.4414 20.582C60.7148 20.582 60.9362 20.6569 61.1055 20.8066C61.2747 20.9564 61.3594 21.168 61.3594 21.4414C61.3594 21.6823 61.265 21.9655 61.0762 22.291C60.8874 22.61 60.6009 22.9193 60.2168 23.2188C59.8392 23.5117 59.3607 23.7559 58.7812 23.9512C58.2083 24.1465 57.5475 24.2441 56.7988 24.2441C55.0866 24.2441 53.7552 23.7559 52.8047 22.7793C51.8542 21.8027 51.3789 20.4779 51.3789 18.8047C51.3789 18.0169 51.4961 17.2878 51.7305 16.6172C51.9648 15.9401 52.3066 15.3607 52.7559 14.8789C53.2051 14.3971 53.7585 14.0293 54.416 13.7754C55.0736 13.515 55.8027 13.3848 56.6035 13.3848C57.6452 13.3848 58.5371 13.6061 59.2793 14.0488C60.028 14.485 60.5879 15.0514 60.959 15.748C61.3301 16.4447 61.5156 17.1543 61.5156 17.877C61.5156 18.5475 61.3236 18.9837 60.9395 19.1855C60.5553 19.3809 60.015 19.4785 59.3184 19.4785ZM54.1035 17.9648H58.9375C58.8724 17.0534 58.625 16.373 58.1953 15.9238C57.7721 15.4681 57.2122 15.2402 56.5156 15.2402C55.8516 15.2402 55.3047 15.4714 54.875 15.9336C54.4518 16.3893 54.1947 17.0664 54.1035 17.9648ZM70.5098 22.7402C69.8652 23.2415 69.2402 23.6191 68.6348 23.873C68.0358 24.1204 67.362 24.2441 66.6133 24.2441C65.9297 24.2441 65.3275 24.1107 64.8066 23.8438C64.2923 23.5703 63.8952 23.2025 63.6152 22.7402C63.3353 22.278 63.1953 21.7767 63.1953 21.2363C63.1953 20.5072 63.4264 19.8854 63.8887 19.3711C64.3509 18.8568 64.9857 18.5117 65.793 18.3359C65.9622 18.2969 66.3822 18.209 67.0527 18.0723C67.7233 17.9355 68.2962 17.8118 68.7715 17.7012C69.2533 17.584 69.7741 17.444 70.334 17.2812C70.3014 16.5781 70.1582 16.0638 69.9043 15.7383C69.6569 15.4062 69.1393 15.2402 68.3516 15.2402C67.6745 15.2402 67.1634 15.3346 66.8184 15.5234C66.4798 15.7122 66.1868 15.9954 65.9395 16.373C65.6986 16.7507 65.526 17.0013 65.4219 17.125C65.3242 17.2422 65.1094 17.3008 64.7773 17.3008C64.4779 17.3008 64.2174 17.2064 63.9961 17.0176C63.7812 16.8223 63.6738 16.5749 63.6738 16.2754C63.6738 15.8066 63.8398 15.3509 64.1719 14.9082C64.5039 14.4655 65.0215 14.1009 65.7246 13.8145C66.4277 13.528 67.3034 13.3848 68.3516 13.3848C69.5234 13.3848 70.4447 13.5247 71.1152 13.8047C71.7858 14.0781 72.2578 14.5143 72.5312 15.1133C72.8112 15.7122 72.9512 16.5065 72.9512 17.4961C72.9512 18.1211 72.9479 18.6517 72.9414 19.0879C72.9414 19.5241 72.9382 20.0091 72.9316 20.543C72.9316 21.0443 73.013 21.5684 73.1758 22.1152C73.3451 22.6556 73.4297 23.0039 73.4297 23.1602C73.4297 23.4336 73.2995 23.6842 73.0391 23.9121C72.7852 24.1335 72.4954 24.2441 72.1699 24.2441C71.8965 24.2441 71.6263 24.1172 71.3594 23.8633C71.0924 23.6029 70.8092 23.2285 70.5098 22.7402ZM70.334 18.8828C69.9434 19.026 69.3737 19.179 68.625 19.3418C67.8828 19.498 67.3685 19.6152 67.082 19.6934C66.7956 19.765 66.5221 19.9115 66.2617 20.1328C66.0013 20.3477 65.8711 20.6504 65.8711 21.041C65.8711 21.4447 66.0241 21.7897 66.3301 22.0762C66.6361 22.3561 67.0365 22.4961 67.5312 22.4961C68.0586 22.4961 68.5436 22.3822 68.9863 22.1543C69.4355 21.9199 69.7643 21.6204 69.9727 21.2559C70.2135 20.8522 70.334 20.1882 70.334 19.2637V18.8828ZM78.3125 20.3965V22.623C78.3125 23.1634 78.1855 23.5703 77.9316 23.8438C77.6777 24.1107 77.3555 24.2441 76.9648 24.2441C76.5807 24.2441 76.265 24.1074 76.0176 23.834C75.7702 23.5605 75.6465 23.1569 75.6465 22.623V15.2012C75.6465 14.0033 76.0794 13.4043 76.9453 13.4043C77.388 13.4043 77.707 13.5443 77.9023 13.8242C78.0977 14.1042 78.2051 14.5176 78.2246 15.0645C78.5436 14.5176 78.8691 14.1042 79.2012 13.8242C79.5397 13.5443 79.9889 13.4043 80.5488 13.4043C81.1087 13.4043 81.6523 13.5443 82.1797 13.8242C82.707 14.1042 82.9707 14.4753 82.9707 14.9375C82.9707 15.263 82.8568 15.5332 82.6289 15.748C82.4076 15.9564 82.1667 16.0605 81.9062 16.0605C81.8086 16.0605 81.571 16.002 81.1934 15.8848C80.8223 15.7611 80.4935 15.6992 80.207 15.6992C79.8164 15.6992 79.4974 15.8034 79.25 16.0117C79.0026 16.2135 78.8105 16.5163 78.6738 16.9199C78.5371 17.3236 78.4427 17.8053 78.3906 18.3652C78.3385 18.9186 78.3125 19.5957 78.3125 20.3965ZM93.7324 15.3574V23.1016C93.7324 23.987 93.638 24.7487 93.4492 25.3867C93.2604 26.0247 92.9577 26.5521 92.541 26.9688C92.1243 27.3854 91.5775 27.6947 90.9004 27.8965C90.2298 28.0983 89.3932 28.1992 88.3906 28.1992C87.4727 28.1992 86.6523 28.069 85.9297 27.8086C85.207 27.5547 84.6504 27.2227 84.2598 26.8125C83.8691 26.4089 83.6738 25.9922 83.6738 25.5625C83.6738 25.237 83.7845 24.9701 84.0059 24.7617C84.2272 24.5599 84.4941 24.459 84.8066 24.459C85.1973 24.459 85.5391 24.6315 85.832 24.9766C85.9753 25.1523 86.1217 25.3281 86.2715 25.5039C86.4277 25.6862 86.597 25.8392 86.7793 25.9629C86.9681 26.0931 87.1927 26.1875 87.4531 26.2461C87.7135 26.3112 88.013 26.3438 88.3516 26.3438C89.0417 26.3438 89.5755 26.2461 89.9531 26.0508C90.3372 25.862 90.6042 25.5951 90.7539 25.25C90.9102 24.9049 91.0013 24.5339 91.0273 24.1367C91.0534 23.7461 91.0729 23.1146 91.0859 22.2422C90.6758 22.8151 90.2005 23.2513 89.6602 23.5508C89.1263 23.8503 88.4883 24 87.7461 24C86.8542 24 86.0729 23.7721 85.4023 23.3164C84.7383 22.8607 84.2272 22.2227 83.8691 21.4023C83.5111 20.582 83.332 19.6348 83.332 18.5605C83.332 17.7598 83.4395 17.0371 83.6543 16.3926C83.8757 15.748 84.1882 15.2044 84.5918 14.7617C84.9954 14.319 85.4609 13.987 85.9883 13.7656C86.5156 13.5378 87.0951 13.4238 87.7266 13.4238C88.4818 13.4238 89.1361 13.5703 89.6895 13.8633C90.2428 14.1497 90.7572 14.6022 91.2324 15.2207V14.8594C91.2324 14.3971 91.3464 14.0391 91.5742 13.7852C91.8021 13.5312 92.0951 13.4043 92.4531 13.4043C92.9674 13.4043 93.3092 13.5736 93.4785 13.9121C93.6478 14.2441 93.7324 14.7259 93.7324 15.3574ZM86.0078 18.7363C86.0078 19.8171 86.2422 20.6341 86.7109 21.1875C87.1862 21.7409 87.7982 22.0176 88.5469 22.0176C88.9896 22.0176 89.4062 21.9004 89.7969 21.666C90.194 21.4251 90.5163 21.0671 90.7637 20.5918C91.0111 20.11 91.1348 19.5273 91.1348 18.8438C91.1348 17.7565 90.8939 16.9102 90.4121 16.3047C89.9368 15.6992 89.3086 15.3965 88.5273 15.3965C87.7656 15.3965 87.1536 15.6862 86.6914 16.2656C86.2357 16.8451 86.0078 17.6686 86.0078 18.7363ZM102.658 22.7402C102.014 23.2415 101.389 23.6191 100.783 23.873C100.184 24.1204 99.5104 24.2441 98.7617 24.2441C98.0781 24.2441 97.4759 24.1107 96.9551 23.8438C96.4408 23.5703 96.0436 23.2025 95.7637 22.7402C95.4837 22.278 95.3438 21.7767 95.3438 21.2363C95.3438 20.5072 95.5749 19.8854 96.0371 19.3711C96.4993 18.8568 97.1341 18.5117 97.9414 18.3359C98.1107 18.2969 98.5306 18.209 99.2012 18.0723C99.8717 17.9355 100.445 17.8118 100.92 17.7012C101.402 17.584 101.923 17.444 102.482 17.2812C102.45 16.5781 102.307 16.0638 102.053 15.7383C101.805 15.4062 101.288 15.2402 100.5 15.2402C99.8229 15.2402 99.3118 15.3346 98.9668 15.5234C98.6283 15.7122 98.3353 15.9954 98.0879 16.373C97.847 16.7507 97.6745 17.0013 97.5703 17.125C97.4727 17.2422 97.2578 17.3008 96.9258 17.3008C96.6263 17.3008 96.3659 17.2064 96.1445 17.0176C95.9297 16.8223 95.8223 16.5749 95.8223 16.2754C95.8223 15.8066 95.9883 15.3509 96.3203 14.9082C96.6523 14.4655 97.1699 14.1009 97.873 13.8145C98.5762 13.528 99.4518 13.3848 100.5 13.3848C101.672 13.3848 102.593 13.5247 103.264 13.8047C103.934 14.0781 104.406 14.5143 104.68 15.1133C104.96 15.7122 105.1 16.5065 105.1 17.4961C105.1 18.1211 105.096 18.6517 105.09 19.0879C105.09 19.5241 105.087 20.0091 105.08 20.543C105.08 21.0443 105.161 21.5684 105.324 22.1152C105.493 22.6556 105.578 23.0039 105.578 23.1602C105.578 23.4336 105.448 23.6842 105.188 23.9121C104.934 24.1335 104.644 24.2441 104.318 24.2441C104.045 24.2441 103.775 24.1172 103.508 23.8633C103.241 23.6029 102.958 23.2285 102.658 22.7402ZM102.482 18.8828C102.092 19.026 101.522 19.179 100.773 19.3418C100.031 19.498 99.5169 19.6152 99.2305 19.6934C98.944 19.765 98.6706 19.9115 98.4102 20.1328C98.1497 20.3477 98.0195 20.6504 98.0195 21.041C98.0195 21.4447 98.1725 21.7897 98.4785 22.0762C98.7845 22.3561 99.1849 22.4961 99.6797 22.4961C100.207 22.4961 100.692 22.3822 101.135 22.1543C101.584 21.9199 101.913 21.6204 102.121 21.2559C102.362 20.8522 102.482 20.1882 102.482 19.2637V18.8828ZM110.48 14.918V22.623C110.48 23.1569 110.354 23.5605 110.1 23.834C109.846 24.1074 109.523 24.2441 109.133 24.2441C108.742 24.2441 108.423 24.1042 108.176 23.8242C107.935 23.5443 107.814 23.1439 107.814 22.623V14.9961C107.814 14.4688 107.935 14.0716 108.176 13.8047C108.423 13.5378 108.742 13.4043 109.133 13.4043C109.523 13.4043 109.846 13.5378 110.1 13.8047C110.354 14.0716 110.48 14.4427 110.48 14.918ZM109.162 12.1641C108.791 12.1641 108.472 12.0501 108.205 11.8223C107.945 11.5944 107.814 11.2721 107.814 10.8555C107.814 10.4779 107.948 10.1686 108.215 9.92773C108.488 9.68034 108.804 9.55664 109.162 9.55664C109.507 9.55664 109.813 9.66732 110.08 9.88867C110.347 10.11 110.48 10.4323 110.48 10.8555C110.48 11.2656 110.35 11.5879 110.09 11.8223C109.829 12.0501 109.52 12.1641 109.162 12.1641ZM115.666 14.8789V15.2012C116.135 14.5827 116.646 14.1302 117.199 13.8438C117.759 13.5508 118.4 13.4043 119.123 13.4043C119.826 13.4043 120.454 13.5573 121.008 13.8633C121.561 14.1693 121.975 14.6022 122.248 15.1621C122.424 15.4876 122.538 15.8392 122.59 16.2168C122.642 16.5944 122.668 17.0762 122.668 17.6621V22.623C122.668 23.1569 122.544 23.5605 122.297 23.834C122.056 24.1074 121.74 24.2441 121.35 24.2441C120.952 24.2441 120.63 24.1042 120.383 23.8242C120.135 23.5443 120.012 23.1439 120.012 22.623V18.1797C120.012 17.3008 119.888 16.6302 119.641 16.168C119.4 15.6992 118.915 15.4648 118.186 15.4648C117.71 15.4648 117.277 15.6081 116.887 15.8945C116.496 16.1745 116.21 16.5618 116.027 17.0566C115.897 17.4538 115.832 18.196 115.832 19.2832V22.623C115.832 23.1634 115.705 23.5703 115.451 23.8438C115.204 24.1107 114.882 24.2441 114.484 24.2441C114.1 24.2441 113.785 24.1042 113.537 23.8242C113.29 23.5443 113.166 23.1439 113.166 22.623V14.918C113.166 14.4102 113.277 14.0326 113.498 13.7852C113.719 13.5312 114.022 13.4043 114.406 13.4043C114.641 13.4043 114.852 13.4596 115.041 13.5703C115.23 13.681 115.38 13.847 115.49 14.0684C115.607 14.2897 115.666 14.5599 115.666 14.8789Z" fill="#FF385C"/>
</svg>
